HIERARCHY
ROOT hip
{
	OFFSET 0.000000 0.000000 0.000000 
	CHANNELS 6 Xposition Yposition Zposition Xrotation Zrotation Yrotation
	JOINT abdomen
	{
		OFFSET 0.000000 3.402643 0.000000 
		CHANNELS 3 Xrotation Zrotation Yrotation
		JOINT chest
		{
			OFFSET 0.000000 8.438565 -0.680529 
			CHANNELS 3 Xrotation Zrotation Yrotation
			JOINT neck
			{
				OFFSET 0.000000 10.207942 -0.272212 
				CHANNELS 3 Xrotation Zrotation Yrotation
				JOINT head
				{
					OFFSET 0.000000 3.130431 0.000000 
					CHANNELS 3 Xrotation Zrotation Yrotation
					End Site
					{
						OFFSET 0.000000 3.130435 0.000000 
					}
				}
			}
			JOINT lCollar
			{
				OFFSET 3.470700 6.669187 -0.816635 
				CHANNELS 3 Yrotation Zrotation Xrotation
				JOINT lShldr
				{
					OFFSET 3.198488 0.000000 0.000000 
					CHANNELS 3 Zrotation Yrotation Xrotation
					JOINT lForeArm
					{
						OFFSET 10.139888 0.000000 0.000000 
						CHANNELS 3 Yrotation Zrotation Xrotation
						JOINT lHand
						{
							OFFSET 8.370511 0.000000 0.000000 
							CHANNELS 3 Zrotation Yrotation Xrotation
							End Site
							{
								OFFSET 4.083176 0.000000 0.000000 
							}
						}
					}
				}
			}
			JOINT rCollar
			{
				OFFSET -3.470700 6.669187 -0.816635 
				CHANNELS 3 Yrotation Zrotation Xrotation
				JOINT rShldr
				{
					OFFSET -3.198488 0.000000 0.000000 
					CHANNELS 3 Zrotation Yrotation Xrotation
					JOINT rForeArm
					{
						OFFSET -10.139888 0.000000 0.000000 
						CHANNELS 3 Yrotation Zrotation Xrotation
						JOINT rHand
						{
							OFFSET -8.370511 0.000000 0.000000 
							CHANNELS 3 Zrotation Yrotation Xrotation
							End Site
							{
								OFFSET -4.083176 0.000000 0.000000 
							}
						}
					}
				}
			}
		}
	}
	JOINT lThigh
	{
		OFFSET 5.308129 -1.633274 1.361059 
		CHANNELS 3 Xrotation Zrotation Yrotation
		JOINT lShin
		{
			OFFSET -2.041588 -20.007561 0.000000 
			CHANNELS 3 Xrotation Zrotation Yrotation
			JOINT lFoot
			{
				OFFSET 0.000000 -19.190928 -1.224953 
				CHANNELS 3 Xrotation Yrotation Zrotation
				End Site
				{
					OFFSET 0.000000 -2.449906 4.627600 
				}
			}
		}
	}
	JOINT rThigh
	{
		OFFSET -5.308129 -1.633274 1.361059 
		CHANNELS 3 Xrotation Zrotation Yrotation
		JOINT rShin
		{
			OFFSET 2.041588 -20.007561 0.000000 
			CHANNELS 3 Xrotation Zrotation Yrotation
			JOINT rFoot
			{
				OFFSET 0.000000 -19.190928 -1.224953 
				CHANNELS 3 Xrotation Yrotation Zrotation
				End Site
				{
					OFFSET 0.000000 -2.449906 4.627600 
				}
			}
		}
	}
}
MOTION
Frames: 8
Frame Time: 0.033333
-16.499577 39.996243 63.130726 -5.283203 -13.359374 127.605156 18.916016 9.570313 2.198828 -20.029295 5.185547 -0.438570 -5.556641 -10.498047 17.617188 22.412109 -15.312500 16.442732 7.197265 25.810547 1.298828 -17.763672 -19.716797 -62.939457 -94.521484 -3.525390 -70.009766 11.328142 -121.562508 -8.484883 3.339844 2.011719 -0.126953 58.593746 1.728516 -48.144527 82.021484 3.769531 -60.860020 -0.390625 9.990234 0.029297 -60.888794 20.683821 3.119801 37.887493 -1.038599 -2.687491 9.627263 -18.582880 -2.627818 -24.949678 -32.125248 -14.351582 62.995304 -0.712960 3.230555 -30.214502 -23.910725 -8.881000 
-16.273207 40.312157 62.868958 -7.910156 -13.369142 133.542664 17.822266 9.052734 3.681641 -21.435547 6.591797 1.133934 -3.867188 -12.392579 13.955078 23.642578 -14.443358 13.132330 9.521484 25.292967 1.142578 -16.171875 -17.128906 -70.969673 -97.949219 -3.144531 -90.067825 19.648460 -124.208984 -15.115499 3.505859 0.605469 -0.039063 56.240234 5.126954 -49.442486 83.896484 3.613281 -58.115231 -2.001953 10.869141 -0.232534 -62.846428 17.713427 1.881330 38.405354 -1.033438 -2.702987 6.427474 -8.772507 -4.393490 -20.555960 -31.012720 -20.100933 59.833870 -0.897259 3.209240 -29.651964 -24.786379 -8.931331 
-15.943086 40.449963 62.432384 -10.371094 -13.017579 138.640381 16.865232 8.144531 5.205079 -22.841797 7.470703 3.242188 -1.611328 -13.974609 9.941406 24.873045 -13.388672 9.824220 11.669922 24.472656 1.255720 -17.031250 -15.654297 -77.102242 -99.746094 -2.929688 -95.742180 10.634768 -121.318352 -7.879438 4.033203 -1.162109 -0.097656 55.810547 8.261718 -47.059143 85.546875 3.642578 -54.844372 -2.890625 11.220703 -0.292969 -65.701332 14.745772 -1.336267 43.502087 -0.705772 -2.683552 0.742155 3.342758 -5.343740 -16.864519 -28.851406 -22.146263 57.038517 -0.361315 2.837603 -29.141310 -25.365454 -9.197845 
-15.495373 40.378910 61.826046 -12.490233 -12.490233 142.722504 15.693358 6.953125 7.011718 -23.896482 8.349609 5.518996 0.878906 -15.058595 5.605469 25.927734 -11.992188 6.511643 13.857422 23.066406 1.113281 -19.150391 -14.589843 -80.832535 -102.460938 -2.929687 -96.113281 -3.359369 -118.925781 4.307858 4.912109 -2.910156 0.078621 56.640625 11.728515 -41.542965 84.707031 3.642578 -52.246090 -2.890625 10.517579 -0.291185 -67.662125 12.079470 -4.660778 47.365536 -0.296399 -3.078716 -0.729665 7.077289 -5.005334 -13.876221 -26.075333 -21.664021 54.574028 -0.331992 2.899086 -29.390530 -25.697359 -9.353217 
-14.952109 40.112366 61.082134 -13.720703 -11.435547 146.210938 14.667970 5.703125 8.975580 -24.599609 8.701173 7.804211 3.974609 -15.273437 1.201172 26.816406 -10.068360 3.201417 15.341797 21.621096 1.113281 -22.500000 -13.056642 -82.871094 -106.113281 -2.841797 -97.685066 -9.902349 -118.515625 10.097656 6.132812 -4.326171 0.117188 58.144531 14.316406 -34.011257 80.537109 3.554688 -51.426388 -2.529297 8.408204 -0.272008 -68.647011 10.165640 -6.984485 49.285004 -0.286716 -3.505340 -3.044367 6.583055 -4.732242 -10.370442 -23.342300 -19.170235 52.280560 -0.203000 2.889565 -30.399450 -26.043598 -10.348898 
-14.323472 39.692825 60.281757 -14.589844 -10.380860 149.726563 13.466797 4.248047 10.498770 -24.599609 8.876953 9.913616 7.128906 -14.951171 -3.310547 27.705078 -7.783203 0.068360 16.259766 19.862442 1.002843 -26.533205 -11.142578 -83.564453 -108.955078 -2.880859 -99.306152 -8.857425 -119.130859 9.179688 7.539063 -5.390625 0.186464 60.253906 15.068358 -26.276758 74.023438 3.593750 -53.067020 -2.324219 4.013672 -0.263672 -70.002571 9.110931 -6.865105 52.100853 0.120696 -3.297507 -5.351873 3.985061 -4.791599 -7.734436 -20.135559 -14.907072 51.956451 -0.199460 2.673574 -31.305649 -27.005106 -11.137712 
-13.638730 39.193176 59.487141 -14.941406 -8.798828 153.250458 12.441406 2.851563 11.855955 -24.248047 9.052734 11.669922 10.166015 -13.916016 -7.900392 28.251953 -5.156250 -3.086815 16.328125 17.978516 0.895424 -30.937502 -9.179688 -83.759766 -112.275391 -2.929688 -99.453117 -5.693354 -119.404305 6.280555 9.091797 -6.484375 0.167118 62.783203 13.886718 -19.423828 67.207031 3.613281 -55.098270 -2.314453 -1.611328 -0.097931 -71.480453 8.934921 -5.232140 55.432205 0.071819 -3.628132 -6.658157 -0.022176 -5.392018 -5.820072 -17.691162 -10.813879 54.408009 -0.204945 2.973514 -30.666693 -26.372438 -10.440097 
-12.958642 38.674286 58.770920 -14.765624 -7.216797 157.117920 11.630859 1.455078 12.675782 -23.544922 9.052734 12.910156 13.242188 -12.470703 -12.218905 28.623047 -2.343750 -6.054688 15.830077 16.435547 0.771484 -35.000000 -6.621094 -82.247215 -113.789063 -2.744141 -98.915550 1.845708 -120.039055 -0.350252 10.488282 -7.021485 0.245334 65.878906 11.083984 -13.417968 61.669922 3.535156 -55.722656 -2.314453 -6.708985 -0.098797 -72.585373 9.120878 -3.824578 58.421772 0.083033 -3.395907 -7.471490 -4.108767 -5.704902 -4.228294 -15.962300 -9.126304 58.076363 -0.361496 3.047992 -29.130142 -23.962860 -8.358733 
